<svg width="96" height="96" xmlns="http://www.w3.org/2000/svg" xmlns:xlink="http://www.w3.org/1999/xlink" xml:space="preserve" overflow="hidden"><g transform="translate(-831 -22)"><path d="M890.3 59.3C886.1 59.3 882.8 55.9 882.8 51.8 882.8 47.7 886.2 44.3 890.3 44.3 894.5 44.3 897.8 47.7 897.8 51.8 897.8 55.9 894.4 59.3 890.3 59.3ZM907.2 47.1C906.8 45.7 906.3 44.4 905.6 43.2L907.2 38.5 903.6 34.9 898.9 36.5C897.7 35.8 896.4 35.3 895 34.9L892.8 30.5 887.8 30.5 885.6 34.9C884.2 35.3 882.9 35.8 881.7 36.5L877 34.9 873.4 38.5 875 43.2C874.3 44.4 873.8 45.7 873.4 47.1L869 49.3 869 54.3 873.4 56.5C873.8 57.9 874.3 59.2 875 60.4L873.4 65.1 876.9 68.6 881.6 67C882.8 67.7 884.1 68.2 885.5 68.6L887.7 73 892.7 73 894.9 68.6C896.3 68.2 897.6 67.7 898.8 67L903.5 68.6 907.1 65.1 905.5 60.4C906.2 59.2 906.8 57.8 907.2 56.5L911.6 54.3 911.6 49.3 907.2 47.1Z"/><path d="M867.7 95.7C863.5 95.7 860.2 92.3 860.2 88.2 860.2 84 863.6 80.7 867.7 80.7 871.9 80.7 875.2 84.1 875.2 88.2 875.2 92.3 871.9 95.7 867.7 95.7L867.7 95.7ZM883 79.6 884.6 74.9 881 71.3 876.3 72.9C875.1 72.2 873.7 71.7 872.4 71.3L870.2 66.9 865.2 66.9 863 71.3C861.6 71.7 860.3 72.2 859.1 72.9L854.4 71.3 850.9 74.8 852.4 79.5C851.7 80.7 851.2 82.1 850.8 83.4L846.4 85.6 846.4 90.6 850.8 92.8C851.2 94.2 851.7 95.5 852.4 96.7L850.9 101.4 854.4 104.9 859.1 103.4C860.3 104.1 861.6 104.6 863 105L865.2 109.4 870.2 109.4 872.4 105C873.8 104.6 875.1 104.1 876.3 103.4L881 105 884.5 101.4 883 96.8C883.7 95.6 884.2 94.3 884.6 92.9L889 90.7 889 85.7 884.6 83.5C884.2 82.1 883.7 80.8 883 79.6Z"/></g></svg>