<svg width="96" height="96" xmlns="http://www.w3.org/2000/svg" xmlns:xlink="http://www.w3.org/1999/xlink" xml:space="preserve" overflow="hidden"><g transform="translate(-679 -6)"><path d="M702 88 702 20 727 20 727 41 752 41 752 88 702 88ZM733 22.5 745.5 35 733 35 733 22.5ZM733 14 696 14 696 94 758 94 758 36 733 14Z"/><path d="M708 51 746 51 746 55 708 55Z"/><path d="M708 43 721 43 721 47 708 47Z"/><path d="M708 59 746 59 746 63 708 63Z"/><path d="M708 67 746 67 746 71 708 71Z"/><path d="M708 75 746 75 746 79 708 79Z"/></g></svg>